<svg width="250" height="317" xmlns="http://www.w3.org/2000/svg">
    <g fill="none" fill-rule="evenodd">
        <g transform="translate(2 262)" stroke="#D9ECFF">
            <rect stroke-width="4" width="242" height="53" rx="26.5"/>
            <rect x="5" y="4" width="232" height="45" rx="22.5"/>
        </g>
        <path d="M190.577 129.712c32.745 0 59.386 26.641 59.386 59.387a3 3 0 1 1-6 0c0-29.438-23.95-53.387-53.386-53.387-29.438 0-53.386 23.95-53.386 53.387s23.948 53.387 53.386 53.387c24.486 0 45.77-16.556 51.762-40.262a2.994 2.994 0 0 1 3.644-2.173 2.998 2.998 0 0 1 2.172 3.644c-6.665 26.372-30.342 44.791-57.578 44.791-32.746 0-59.386-26.64-59.386-59.387 0-32.746 26.64-59.387 59.386-59.387zm-.378 14.42c5.813 0 8.798 5.658 9.645 9 .04.16.068.324.081.489l.01.248v26.416h23.76c7.052 0 10.78 3.727 10.78 10.78 0 6.02-5.939 9.19-9.448 10.113a2.97 2.97 0 0 1-.57.093l-.194.006h-25.37v22.526c0 6.83-3.762 10.591-10.592 10.591-6.297 0-9.392-6.05-10.228-9.624a2.956 2.956 0 0 1-.07-.454l-.009-.23v-22.809h-11.803a3 3 0 0 1-.176-5.995l.176-.005h14.803a3 3 0 0 1 2.995 2.824l.005.176v25.397c.323 1.04 1.652 4.72 4.307 4.72 3.397 0 4.54-1.065 4.59-4.357l.001-.234v-25.526a3 3 0 0 1 2.824-2.995l.176-.005h27.91c1.08-.373 4.672-1.799 4.672-4.212 0-3.671-.983-4.734-4.539-4.778l-.24-.002h-26.76a3 3 0 0 1-2.995-2.824l-.005-.176v-28.968c-.335-.988-1.586-4.185-3.736-4.185-3.55 0-5.448 2.656-5.537 5.344l-.003.196v27.802a3 3 0 0 1-2.824 2.995l-.176.005H153.85c-.39.086-2.08.68-2.164 4.339l-.003.287v.116c.008 1.092.218 3.35 6.11 3.35a3 3 0 0 1 0 6c-10.929 0-12.11-6.62-12.11-9.466 0-7.93 5.073-10.413 7.755-10.617l.114-.007.114-.002h24.993v-24.802c0-6.47 5.07-11.54 11.54-11.54zM75.573 9.276a3.5 3.5 0 0 1-1.998 4.528c-18.807 7.292-34.872 19.929-46.459 36.544C15.265 67.343 9 87.32 9 108.118c0 29.487 12.69 56.062 32.89 74.563l.615.558v-10.652c0-.356.064-.71.187-1.043.127-.342 3.172-8.46 9.201-16.674 8.12-11.062 17.834-16.988 28.122-17.162l.468-.004h64.145a3 3 0 0 1 .176 5.995l-.176.005h-7.631c-1.563 12.682-10.927 24.85-29.065 24.85-15.49 0-23.81-14.661-25.503-24.552l-.049-.298h-1.897c-19.17 0-30.208 25.104-31.929 29.328l-.049.122v15.085c17.071 13.158 38.442 20.997 61.613 20.997 4.823 0 9.672-.343 14.412-1.018 1.909-.284 3.685 1.056 3.959 2.97a3.499 3.499 0 0 1-2.971 3.959 109.368 109.368 0 0 1-15.4 1.089C50.501 216.236 2 167.735 2 108.118 2 85.88 8.7 64.52 21.374 46.344c12.386-17.76 29.561-31.27 49.67-39.066a3.5 3.5 0 0 1 4.529 1.998zm55.406 134.428h-42.48c1.162 6.085 5.01 18.578 17.038 18.846l.395.004h4c9.764 0 19.232-5.88 21.047-18.85zM20.544 94.462a3.001 3.001 0 0 1 2.562 3.38c-.032.235-2.759 21.495 7.345 43.508a3 3 0 1 1-5.453 2.503c-10.867-23.675-7.965-45.894-7.836-46.829a2.993 2.993 0 0 1 3.382-2.562zM110.118 0c59.617 0 108.118 48.502 108.118 108.118 0 5.639-.438 11.3-1.303 16.826a3.5 3.5 0 0 1-6.916-1.082 102.15 102.15 0 0 0 1.219-15.744C211.236 52.362 165.875 7 110.118 7c-.947 0-2.292.047-3.999.138a3.508 3.508 0 0 1-3.682-3.308 3.5 3.5 0 0 1 3.308-3.682C107.576.05 109.047 0 110.118 0zm.73 40.158c23.47 0 31.333 17.166 32.212 26.243l.01.144.004.145v28.847c0 7.466-15.83 31.866-37.142 31.866-18.29 0-27.484-21.35-30.156-28.874a2.996 2.996 0 0 1-.943-1.976l-.007-.214V73.902c0-32.541 35.594-33.735 35.953-33.743l.069-.001zM96.995 68.529c-1.937 2.016-4.511 3.758-7.691 5.188-3.035 1.363-6.043 2.176-8.167 2.637l-.311.066v18.288c1.039 3.28 9.02 26.695 25.106 26.695 17.676 0 30.875-21.28 31.138-25.736l.004-.13V82.551c-5.338 1.197-10.206 1.801-14.58 1.801-7.578 0-13.687-1.796-18.254-5.38-3.306-2.594-5.757-6.162-7.245-10.443zm26.986-49.564c35.13 7.268 53.3 25.466 62.355 39.453 9.864 15.235 11.32 28.66 11.379 29.225a3 3 0 0 1-5.97.61c-.013-.135-1.434-12.78-10.61-26.826-12.281-18.805-31.92-31.114-58.37-36.586a3.002 3.002 0 0 1-2.33-3.546 3.004 3.004 0 0 1 3.546-2.33zm-96.6 48.128a3 3 0 0 1 1.013 4.12c-3.967 6.553-3.75 12.354-3.746 12.411a3.007 3.007 0 0 1-3 3.147 2.991 2.991 0 0 1-2.991-2.819c-.018-.307-.376-7.62 4.604-15.846a3 3 0 0 1 4.12-1.013zm83.507-20.935c-1.554.046-27.324 1.195-29.845 24.056 5.214-1.294 14.28-4.639 14.28-12.253a3 3 0 1 1 6 0c0 5.061 1.148 11.996 6.62 16.291 5.829 4.574 15.423 5.336 28.514 2.285l.617-.146v-9.534c-.23-1.869-3.116-20.678-26.186-20.699zM98.003 4.263a3.5 3.5 0 0 1-3.293 3.695c-6.731.388-10.823 2.121-10.863 2.14a3.504 3.504 0 0 1-4.601-1.812 3.494 3.494 0 0 1 1.788-4.599c.208-.092 5.18-2.25 13.274-2.717a3.504 3.504 0 0 1 3.695 3.293z" fill="#D9ECFF"/>
        <path d="M52.71 295c1.268 0 2.373-.306 3.314-.918.941-.612 1.6-1.468 1.976-2.569h-2.597a2.665 2.665 0 0 1-1.088 1.165c-.468.262-1.009.394-1.621.394-.656 0-1.24-.147-1.75-.44a3.044 3.044 0 0 1-1.194-1.25c-.285-.54-.427-1.165-.427-1.874 0-.72.142-1.348.427-1.882a3.056 3.056 0 0 1 1.194-1.242c.51-.294 1.094-.44 1.75-.44.612 0 1.153.128 1.62.386.468.257.831.642 1.09 1.157H58c-.376-1.09-1.038-1.944-1.984-2.561S53.968 284 52.71 284c-1.076 0-2.046.234-2.912.702a5.245 5.245 0 0 0-2.048 1.96c-.5.838-.75 1.786-.75 2.846s.25 2.005.75 2.838a5.262 5.262 0 0 0 2.048 1.952c.866.468 1.836.702 2.912.702zm9.29 0v-12h-2v12h2zm3.5-10c.43 0 .788-.143 1.073-.43.285-.286.427-.643.427-1.07 0-.427-.142-.784-.427-1.07-.285-.287-.643-.43-1.073-.43-.43 0-.788.143-1.073.43A1.457 1.457 0 0 0 64 283.5c0 .427.142.784.427 1.07.285.287.643.43 1.073.43zm1.5 10v-9h-2v9h2zm6.097 0c1.017 0 1.864-.278 2.542-.834.678-.556 1.132-1.306 1.361-2.25h-2.258c-.26.797-.812 1.196-1.66 1.196-.598 0-1.071-.228-1.42-.685-.35-.456-.524-1.098-.524-1.927 0-.84.175-1.487.524-1.943.349-.456.822-.685 1.42-.685.419 0 .77.108 1.054.323.285.215.486.511.606.889H77c-.23-.976-.68-1.733-1.353-2.274-.673-.54-1.523-.81-2.55-.81-.797 0-1.505.186-2.123.559a3.853 3.853 0 0 0-1.45 1.573c-.35.677-.524 1.466-.524 2.368 0 .902.174 1.691.523 2.368a3.853 3.853 0 0 0 1.45 1.573c.619.373 1.327.559 2.124.559zm7.1 0v-3.827L83.144 295H86l-3.859-4.476 3.828-4.508h-2.855l-2.918 3.811V283H78v12h2.196zm12.924 0v-4.962c0-.714.17-1.262.508-1.646.338-.384.8-.576 1.386-.576.576 0 1.03.192 1.364.576.333.384.5.932.5 1.646V295H99v-5.27c0-.811-.139-1.506-.417-2.084-.277-.578-.664-1.016-1.159-1.314-.495-.297-1.06-.446-1.697-.446-.555 0-1.06.111-1.515.333a2.804 2.804 0 0 0-1.09.916V283H91v12h2.121zm11.42 0c1.078 0 1.987-.27 2.728-.81.74-.54 1.241-1.23 1.502-2.07h-2.466c-.36.703-.964 1.055-1.813 1.055-.588 0-1.084-.178-1.487-.535-.402-.357-.631-.85-.686-1.48h6.616c.043-.25.065-.534.065-.849 0-.85-.188-1.602-.564-2.258a3.841 3.841 0 0 0-1.584-1.518c-.68-.357-1.45-.535-2.311-.535-.893 0-1.683.184-2.369.55a3.915 3.915 0 0 0-1.6 1.574c-.381.682-.572 1.474-.572 2.376 0 .892.193 1.678.58 2.36a4.007 4.007 0 0 0 1.617 1.581c.691.373 1.473.559 2.344.559zm2.459-5h-4c.081-.627.302-1.118.662-1.47.36-.354.803-.53 1.33-.53.558 0 1.03.182 1.415.546.385.364.583.849.593 1.454zm6.258 5v-4.42c0-.822.18-1.399.54-1.73.36-.33.896-.496 1.605-.496H116V286c-.602 0-1.137.133-1.605.4a3.164 3.164 0 0 0-1.137 1.105v-1.377H111V295h2.258zm7.283 0c1.078 0 1.987-.27 2.728-.81.74-.54 1.241-1.23 1.502-2.07h-2.466c-.36.703-.964 1.055-1.813 1.055-.588 0-1.084-.178-1.487-.535-.402-.357-.631-.85-.686-1.48h6.616c.043-.25.065-.534.065-.849 0-.85-.188-1.602-.564-2.258a3.841 3.841 0 0 0-1.584-1.518c-.68-.357-1.45-.535-2.311-.535-.893 0-1.683.184-2.369.55a3.915 3.915 0 0 0-1.6 1.574c-.381.682-.572 1.474-.572 2.376 0 .892.193 1.678.58 2.36a4.007 4.007 0 0 0 1.617 1.581c.691.373 1.473.559 2.344.559zm2.459-5h-4c.081-.627.302-1.118.662-1.47.36-.354.803-.53 1.33-.53.558 0 1.03.182 1.415.546.385.364.583.849.593 1.454zm11 5v-1.878h-.982c-.322 0-.551-.067-.687-.2-.136-.132-.204-.347-.204-.644v-4.266H134v-1.831h-1.873V284h-2.13v2.18H129v1.832h.997v4.25c0 1.825.891 2.738 2.674 2.738H134zm5.437 0c.852 0 1.624-.186 2.313-.559.69-.372 1.237-.899 1.642-1.58.405-.683.608-1.47.608-2.361 0-.892-.197-1.678-.592-2.36a4.108 4.108 0 0 0-1.619-1.581c-.684-.373-1.447-.559-2.289-.559-.842 0-1.605.186-2.29.559-.684.372-1.223.899-1.618 1.58-.395.683-.592 1.47-.592 2.361 0 .892.192 1.678.576 2.36a4.03 4.03 0 0 0 1.587 1.581c.674.373 1.432.559 2.274.559zm.52-2a1.77 1.77 0 0 1-1.4-.648c-.372-.432-.557-1.05-.557-1.852 0-.803.19-1.42.57-1.852a1.81 1.81 0 0 1 1.416-.648c.563 0 1.04.216 1.43.648.39.432.584 1.05.584 1.852 0 .539-.094.996-.282 1.372-.187.376-.439.658-.753.846a1.93 1.93 0 0 1-1.007.282zm12.974 2c.644 0 1.214-.134 1.708-.401.494-.268.88-.606 1.162-1.015v1.274H158v-8.716h-2.2v1.243a3.442 3.442 0 0 0-1.161-.992c-.484-.262-1.048-.393-1.693-.393-.738 0-1.406.184-2.004.55-.598.368-1.071.892-1.42 1.574-.348.682-.522 1.463-.522 2.345 0 .891.174 1.68.523 2.368.348.687.821 1.219 1.419 1.597.598.377 1.26.566 1.989.566zm.56-2c-.432 0-.839-.102-1.22-.307a2.385 2.385 0 0 1-.921-.882c-.233-.383-.35-.83-.35-1.342 0-.51.117-.953.35-1.326.233-.374.537-.657.913-.852a2.633 2.633 0 0 1 1.228-.291c.444 0 .86.1 1.246.3.387.198.694.485.922.858.227.373.341.82.341 1.342 0 .521-.114.969-.341 1.342-.228.373-.535.66-.922.859-.387.2-.802.299-1.246.299zm10.455 2c.645 0 1.212-.134 1.7-.4a2.99 2.99 0 0 0 1.14-1.058v1.314H169V283h-2.215v4.214a3.23 3.23 0 0 0-1.217-1.002 3.59 3.59 0 0 0-1.606-.376c-.738 0-1.41.187-2.012.56-.603.374-1.08.908-1.427 1.603-.349.694-.523 1.49-.523 2.387 0 .908.174 1.711.523 2.411.348.7.824 1.242 1.427 1.626a3.639 3.639 0 0 0 1.996.577zm.545-2c-.432 0-.839-.102-1.22-.307a2.385 2.385 0 0 1-.921-.882c-.233-.383-.35-.83-.35-1.342 0-.51.117-.953.35-1.326.233-.374.537-.657.913-.852a2.633 2.633 0 0 1 1.228-.291c.444 0 .86.1 1.246.3.387.198.694.485.922.858.227.373.341.82.341 1.342 0 .521-.114.969-.341 1.342-.228.373-.535.66-.922.859-.387.2-.802.299-1.246.299zm10.455 2c.645 0 1.212-.134 1.7-.4a2.99 2.99 0 0 0 1.14-1.058v1.314H180V283h-2.215v4.214a3.23 3.23 0 0 0-1.217-1.002 3.59 3.59 0 0 0-1.606-.376c-.738 0-1.41.187-2.012.56-.603.374-1.08.908-1.427 1.603-.349.694-.523 1.49-.523 2.387 0 .908.174 1.711.523 2.411.348.7.824 1.242 1.427 1.626a3.639 3.639 0 0 0 1.996.577zm.545-2c-.432 0-.839-.102-1.22-.307a2.385 2.385 0 0 1-.921-.882c-.233-.383-.35-.83-.35-1.342 0-.51.117-.953.35-1.326.233-.374.537-.657.913-.852a2.633 2.633 0 0 1 1.228-.291c.444 0 .86.1 1.246.3.387.198.694.485.922.858.227.373.341.82.341 1.342 0 .521-.114.969-.341 1.342-.228.373-.535.66-.922.859-.387.2-.802.299-1.246.299zm14.219 2c1.268 0 2.373-.306 3.314-.918.941-.612 1.6-1.468 1.976-2.569h-2.597a2.665 2.665 0 0 1-1.088 1.165c-.468.262-1.009.394-1.621.394-.656 0-1.24-.147-1.75-.44a3.044 3.044 0 0 1-1.194-1.25c-.285-.54-.427-1.165-.427-1.874 0-.72.142-1.348.427-1.882a3.056 3.056 0 0 1 1.194-1.242c.51-.294 1.094-.44 1.75-.44.612 0 1.153.128 1.62.386.468.257.831.642 1.09 1.157H195c-.376-1.09-1.038-1.944-1.984-2.561s-2.048-.926-3.306-.926c-1.076 0-2.046.234-2.912.702a5.245 5.245 0 0 0-2.048 1.96c-.5.838-.75 1.786-.75 2.846s.25 2.005.75 2.838a5.262 5.262 0 0 0 2.048 1.952c.866.468 1.836.702 2.912.702zm9.436 0v-4.287h1.011l2.36 4.287H205l-2.56-4.46c.808-.22 1.416-.622 1.824-1.205a3.338 3.338 0 0 0 .613-1.963c0-.63-.145-1.2-.436-1.71-.292-.509-.728-.913-1.31-1.213-.583-.3-1.288-.449-2.116-.449H197v11h2.146zm1.889-6H199v-3h2.035c.66 0 1.153.13 1.478.388.325.258.487.622.487 1.09 0 .478-.162.851-.487 1.12-.325.268-.817.402-1.478.402zM213 295v-1.794h-3.926v-2.911h3.482v-1.747h-3.482v-2.754H213V284h-6v11h6z" fill="#56A9FF" fill-rule="nonzero"/>
    </g>
</svg>
